<svg xmlns="http://www.w3.org/2000/svg" viewBox="0 0 64 64">
  <rect width="64" height="64" rx="14" fill="#17231d" />
  <path
    d="M14 17c6.5 0 12.1 1.6 17 4.8v27.8c-4.9-3.1-10.5-4.7-17-4.7V17Z"
    fill="#f8f1dc"
  />
  <path
    d="M50 17c-6.5 0-12.1 1.6-17 4.8v27.8c4.9-3.1 10.5-4.7 17-4.7V17Z"
    fill="#f8f1dc"
  />
  <path d="M32 21.8v27.8" stroke="#b79243" stroke-width="2.5" />
  <path
    d="M20 25.5c3.4.4 6.2 1.2 8.5 2.4M20 32c3.2.3 6.1 1 8.5 2.2M44 25.5c-3.4.4-6.2 1.2-8.5 2.4M44 32c-3.2.3-6.1 1-8.5 2.2"
    fill="none"
    stroke="#3f5146"
    stroke-linecap="round"
    stroke-width="2"
  />
  <path d="M42 17v15l-3.5-2.6L35 32V20.8c2.2-1.3 4.5-2.2 7-2.8Z" fill="#c64f45" />
</svg>
